<?xml version="1.0" encoding="UTF-8"?>
<svg xmlns="http://www.w3.org/2000/svg" shape-rendering="geometricPrecision" width="380" height="250" viewBox="220 455 380 250">
  <path d="m 751.45154,2084.0186 c 130.24225,-171.3711 148.24316,-221.7742 158.83197,-278.2259 13.76544,-64.5161 15.88324,-152.2176 11.6477,-214.7175 -4.23553,-47.379 -14.82428,-119.9596 -27.53088,-126.0081 -5.29437,-2.0161 -12.70654,2.0162 -16.94208,8.0646 -10.5888,15.121 -10.5888,55.4435 -13.76544,101.8145 -6.35327,92.7418 -29.64862,419.3546 2.11774,431.4513 13.7655,5.0402 38.11975,-28.2259 54.00293,-49.3951 22.23645,-27.2177 45.53186,-63.508 59.29724,-104.8387 18.00097,-53.4274 13.7655,-168.3467 25.41318,-190.524 3.1766,-6.0484 6.3533,-10.0807 9.5299,-10.0807 4.2355,0 8.471,4.0323 11.6476,11.0887 14.8244,33.2661 21.1778,305.4434 3.1768,329.637 -3.1768,5.0403 -9.5301,6.0483 -12.7067,5.0403 -3.1766,-1.0081 -7.4121,-6.0484 -7.4121,-9.0727 1.0588,-4.0323 12.7065,-5.0404 18.001,-11.0887 7.4121,-10.0806 9.5299,-25.2016 15.8832,-47.3789 15.8831,-54.4356 50.8261,-254.0321 68.8271,-286.2902 4.2356,-7.0565 8.4711,-12.0968 12.7066,-12.0968 3.1767,0 6.3533,3.0242 10.5888,9.0726 16.9422,30.2419 27.5309,321.5724 48.7085,326.6127 5.2944,2.0161 12.7065,-11.0887 19.0598,-23.1855 14.8244,-25.2016 32.8253,-116.9353 45.5319,-133.0645 4.2355,-5.0403 8.4711,-9.0725 12.7067,-7.0564 14.8242,5.0404 60.356,160.2822 50.8261,170.3628 -4.2356,3.0242 -15.8833,0 -18.001,-5.0403 -8.4709,-14.1129 38.1197,-97.7822 51.8852,-127.016 7.4121,-16.129 10.5887,-27.2177 20.1188,-36.2904 8.4709,-8.0644 22.2364,-18.1451 32.8252,-17.1371 10.5888,1.0082 21.1776,12.0968 32.8253,26.2098 24.3542,30.2418 60.3562,136.0886 84.7103,168.3465 11.6477,16.1292 22.2366,27.2178 32.8253,31.25 5.2944,2.0162 8.4711,2.0162 14.8244,-1.008 25.413,-8.0645 111.1823,-98.7902 147.1843,-112.9031 15.8833,-7.0564 26.472,-7.0564 40.2374,-5.0403 16.9421,1.0081 47.6497,8.0645 52.9441,16.1289 4.2355,5.0404 1.0588,17.1372 -1.059,18.1453 -3.1766,1.008 -14.8243,-7.0564 -14.8243,-10.0807 1.059,-3.0242 12.7065,-10.0807 15.8833,-8.0646 2.1177,1.0081 5.2944,13.105 2.1177,16.1292 -7.4121,7.0564 -57.1796,-18.1453 -85.7692,-9.0727 -40.2375,11.0888 -94.2405,76.6129 -121.7712,95.766 -13.7655,10.0808 -22.2366,16.1292 -32.8255,19.1533 -9.5298,2.0161 -18.0008,2.0161 -27.5307,-2.0161 -13.7654,-6.0483 -27.531,-21.1694 -41.2964,-40.3225 -25.4131,-34.2742 -58.2383,-132.0564 -80.4749,-162.2983 -9.5299,-13.1049 -18.0009,-27.2178 -27.5309,-25.2017 -20.1187,5.0404 -40.2374,122.9839 -61.415,149.1935 -9.5299,13.1049 -22.2364,23.1854 -30.7075,22.1774 -5.2943,-1.0081 -9.5299,-7.0564 -13.7655,-16.1291 -12.7066,-24.1934 -41.2963,-131.0482 -34.943,-148.1854 2.1178,-5.0403 6.3533,-8.0644 9.5299,-7.0564 4.2356,0 9.53,5.0404 11.6477,12.0968 3.1766,21.1693 -33.8842,109.879 -48.7085,139.1128 -7.4121,15.121 -12.7065,28.2257 -22.2364,31.25 -8.4711,3.0242 -23.2955,1.0081 -32.8254,-10.0807 -28.5897,-31.25 -46.5907,-234.8789 -51.8851,-290.3224 -2.1178,-21.1693 -4.2355,-36.2902 0,-45.3628 2.1178,-5.0404 6.3533,-9.0726 10.5888,-9.0726 3.1767,1.0081 8.471,5.0403 10.5888,12.0968 5.2945,21.1693 -20.1188,104.8386 -32.8252,154.2338 -11.6478,48.3871 -24.3542,103.8305 -39.1787,139.1128 -10.5887,23.1855 -22.2364,49.3951 -33.884,55.4436 -6.3534,4.0322 -14.8244,4.0322 -18.001,0 -6.3533,-5.0404 -4.2356,-18.1453 -5.2944,-36.2904 -3.1767,-52.4193 -10.5889,-295.3627 6.3532,-303.4273 4.2355,-2.0161 10.5888,2.0163 13.7654,7.0565 6.3533,12.0967 -1.0588,43.3467 -4.2355,69.5564 -4.2355,37.2984 -8.471,89.7177 -23.29531,131.0484 -13.76544,39.3144 -39.17859,80.645 -62.47393,109.8789 -19.05982,24.1936 -46.5907,52.4193 -61.41504,58.4678 -6.35328,2.0161 -11.64771,3.0241 -15.88318,1.008 -5.29444,-3.0242 -9.52997,-10.0807 -13.76551,-23.1855 -14.82428,-52.4194 -10.58874,-335.6853 -2.11773,-433.4674 4.23553,-50.4032 7.41217,-95.7662 21.17761,-112.9032 6.35327,-9.0725 16.94208,-13.1049 24.35425,-12.0968 8.47101,1.008 19.05987,10.0806 26.47198,22.1774 13.76544,23.1855 24.35425,74.5967 28.58979,121.9758 5.29437,61.4918 -3.17664,162.2982 -11.64771,218.7497 -6.35327,37.2985 -12.70654,58.4678 -25.41315,89.7178 -15.88318,38.3064 -40.23742,86.6935 -65.65051,120.9676 -22.23651,30.2419 -59.2973,73.5885 -75.18048,78.6291 -6.35327,2.0161 -11.64771,0 -13.76544,-3.0242 -2.1178,-2.0164 0,-13.1047 0,-13.1047" transform="matrix(0.31999999,0,0,0.31999999,0,10.439975)" fill="#000000" stroke="none" fill-rule="nonzero"/>
</svg>
